<svg xmlns="http://www.w3.org/2000/svg" viewBox="0 0 121.84 28.64"><defs><style>.cls-1{fill:#00af90;}.cls-1,.cls-2,.cls-3,.cls-4,.cls-5,.cls-6,.cls-7,.cls-8,.cls-9{fill-rule:evenodd;}.cls-2{fill:#009979;}.cls-3{fill:#3bb15d;}.cls-4{fill:#00a549;}.cls-5{fill:#e3391a;}.cls-6{fill:#c11f19;}.cls-7{fill:#f0c800;}.cls-8{fill:#f09f00;}.cls-9{fill:#fff;}.cls-10{fill:#231815;}</style></defs><g id="图层_2" data-name="图层 2"><g id="图层_1-2" data-name="图层 1"><path class="cls-1" d="M7.21,7.16l5-5A7.24,7.24,0,0,1,17.37,0H28.69L14.37,14.32,7.21,7.16Z"/><path class="cls-2" d="M12.25,2.12A7.24,7.24,0,0,1,17.37,0h.07a3.6,3.6,0,0,0-3.07,3.06V14.32L7.21,7.16l5-5Z"/><path class="cls-1" d="M7.21,7.16l5-5A7.24,7.24,0,0,1,17.37,0H28.69L14.37,14.32,7.21,7.16Z"/><path class="cls-2" d="M12.25,2.12A7.24,7.24,0,0,1,17.37,0h.07a3.6,3.6,0,0,0-3.07,3.06V14.32L7.21,7.16l5-5Z"/><path class="cls-3" d="M21.53,7.16l5,5a7.27,7.27,0,0,1,2.11,5.12V28.64L14.37,14.32l7.16-7.16Z"/><path class="cls-4" d="M26.58,12.2a7.27,7.27,0,0,1,2.11,5.12v.07a3.55,3.55,0,0,0-1-2.05,3.62,3.62,0,0,0-2-1H14.37l7.16-7.16,5,5Z"/><path class="cls-3" d="M21.53,7.16l5,5a7.27,7.27,0,0,1,2.11,5.12V28.64L14.37,14.32l7.16-7.16Z"/><path class="cls-4" d="M26.58,12.2a7.27,7.27,0,0,1,2.11,5.12v.07a3.55,3.55,0,0,0-1-2.05,3.62,3.62,0,0,0-2-1H14.37l7.16-7.16,5,5Z"/><path class="cls-5" d="M21.48,21.47l-5,5a7.23,7.23,0,0,1-5.11,2.12H0L14.32,14.31l7.16,7.16Z"/><path class="cls-6" d="M16.44,26.51a7.23,7.23,0,0,1-5.11,2.12h-.08a3.6,3.6,0,0,0,3.07-3.06V14.31l7.16,7.16-5,5Z"/><path class="cls-5" d="M21.48,21.47l-5,5a7.23,7.23,0,0,1-5.11,2.12H0L14.32,14.31l7.16,7.16Z"/><path class="cls-6" d="M16.44,26.51a7.23,7.23,0,0,1-5.11,2.12h-.08a3.6,3.6,0,0,0,3.07-3.06V14.31l7.16,7.16-5,5Z"/><path class="cls-7" d="M7.21,21.48l-5-5A7.23,7.23,0,0,1,.05,11.33V0L14.37,14.32,7.21,21.48Z"/><path class="cls-8" d="M2.17,16.44A7.23,7.23,0,0,1,.05,11.33v-.08a3.6,3.6,0,0,0,3.06,3.07H14.37L7.21,21.48l-5-5Z"/><path class="cls-7" d="M7.21,21.48l-5-5A7.23,7.23,0,0,1,.05,11.33V0L14.37,14.32,7.21,21.48Z"/><path class="cls-8" d="M2.17,16.44A7.23,7.23,0,0,1,.05,11.33v-.08a3.6,3.6,0,0,0,3.06,3.07H14.37L7.21,21.48l-5-5Z"/><path class="cls-9" d="M16.42,12.28a2.89,2.89,0,1,0,0,4.09,2.89,2.89,0,0,0,0-4.09Z"/><path class="cls-1" d="M7.21,7.16l5-5A7.24,7.24,0,0,1,17.37,0H28.69L14.37,14.32,7.21,7.16Z"/><path class="cls-2" d="M12.25,2.12A7.24,7.24,0,0,1,17.37,0h.07a3.6,3.6,0,0,0-3.07,3.06V14.32L7.21,7.16l5-5Z"/><path class="cls-3" d="M21.53,7.16l5,5a7.27,7.27,0,0,1,2.11,5.12V28.64L14.37,14.32l7.16-7.16Z"/><path class="cls-4" d="M26.58,12.2a7.27,7.27,0,0,1,2.11,5.12v.07a3.55,3.55,0,0,0-1-2.05,3.62,3.62,0,0,0-2-1H14.37l7.16-7.16,5,5Z"/><path class="cls-5" d="M21.48,21.47l-5,5a7.23,7.23,0,0,1-5.11,2.12H0L14.32,14.31l7.16,7.16Z"/><path class="cls-6" d="M16.44,26.51a7.23,7.23,0,0,1-5.11,2.12h-.08a3.6,3.6,0,0,0,3.07-3.06V14.31l7.16,7.16-5,5Z"/><path class="cls-7" d="M7.21,21.48l-5-5A7.23,7.23,0,0,1,.05,11.33V0L14.37,14.32,7.21,21.48Z"/><path class="cls-8" d="M2.17,16.44A7.23,7.23,0,0,1,.05,11.33v-.08a3.6,3.6,0,0,0,3.06,3.07H14.37L7.21,21.48l-5-5Z"/><path class="cls-9" d="M16.42,12.28a2.89,2.89,0,1,0,0,4.09,2.89,2.89,0,0,0,0-4.09Z"/><path class="cls-1" d="M7.21,7.16l5-5A7.24,7.24,0,0,1,17.37,0H28.69L14.37,14.32,7.21,7.16Z"/><path class="cls-2" d="M12.25,2.12A7.24,7.24,0,0,1,17.37,0h.07a3.6,3.6,0,0,0-3.07,3.06V14.32L7.21,7.16l5-5Z"/><path class="cls-3" d="M21.53,7.16l5,5a7.27,7.27,0,0,1,2.11,5.12V28.64L14.37,14.32l7.16-7.16Z"/><path class="cls-4" d="M26.58,12.2a7.27,7.27,0,0,1,2.11,5.12v.07a3.55,3.55,0,0,0-1-2.05,3.62,3.62,0,0,0-2-1H14.37l7.16-7.16,5,5Z"/><path class="cls-5" d="M21.48,21.47l-5,5a7.23,7.23,0,0,1-5.11,2.12H0L14.32,14.31l7.16,7.16Z"/><path class="cls-6" d="M16.44,26.51a7.23,7.23,0,0,1-5.11,2.12h-.08a3.6,3.6,0,0,0,3.07-3.06V14.31l7.16,7.16-5,5Z"/><path class="cls-7" d="M7.21,21.48l-5-5A7.23,7.23,0,0,1,.05,11.33V0L14.37,14.32,7.21,21.48Z"/><path class="cls-8" d="M2.17,16.44A7.23,7.23,0,0,1,.05,11.33v-.08a3.6,3.6,0,0,0,3.06,3.07H14.37L7.21,21.48l-5-5Z"/><path class="cls-9" d="M16.42,12.28a2.89,2.89,0,1,0,0,4.09,2.89,2.89,0,0,0,0-4.09Z"/><path class="cls-10" d="M37.16,18h4V4h-4ZM48.64,7.31a3.12,3.12,0,0,0-1.23.94V7.14H43.59V18h3.82V10.85a1.24,1.24,0,0,1,.49-.64A1.78,1.78,0,0,1,49,10a3.8,3.8,0,0,1,.74.06,1.19,1.19,0,0,1,.48.23.87.87,0,0,1,.27.46,4.63,4.63,0,0,1,.06.83V18h3.82V10.67a4.16,4.16,0,0,0-.82-2.86,3.66,3.66,0,0,0-2.74-.87,5.17,5.17,0,0,0-2.14.37ZM66.44,4H55.79V7.55h3.32V18h4V7.55h3.34Zm8.24,2.9a4.47,4.47,0,0,0-.91.08,2.4,2.4,0,0,0-.78.31A2.61,2.61,0,0,0,72.3,8,4.63,4.63,0,0,0,71.76,9V7.14H67.93V18h3.83V12.34a2,2,0,0,1,1-1.57,3,3,0,0,1,.84-.32,4.94,4.94,0,0,1,1-.1h.3l.08-3.41Zm8.94,11a3.94,3.94,0,0,0,1.75-.89,4,4,0,0,0,1.09-1.73,8.31,8.31,0,0,0,.38-2.76,8.56,8.56,0,0,0-.38-2.78,4.18,4.18,0,0,0-1.09-1.73,4.4,4.4,0,0,0-1.75-.89,11.48,11.48,0,0,0-4.67,0,4.13,4.13,0,0,0-1.73.89A4,4,0,0,0,76.11,9.8a8.54,8.54,0,0,0-.39,2.78,8.29,8.29,0,0,0,.39,2.76,3.85,3.85,0,0,0,1.11,1.73A3.72,3.72,0,0,0,79,18a10.62,10.62,0,0,0,4.67,0ZM80.48,15.3a1.11,1.11,0,0,1-.53-.46,2.28,2.28,0,0,1-.28-.89,8.77,8.77,0,0,1-.08-1.37,9.38,9.38,0,0,1,.08-1.39,2.39,2.39,0,0,1,.28-.9,1.25,1.25,0,0,1,.53-.47,2.38,2.38,0,0,1,1.61,0,1.17,1.17,0,0,1,.52.47,2.39,2.39,0,0,1,.28.9A8.1,8.1,0,0,1,83,12.58,7.57,7.57,0,0,1,82.89,14a2.28,2.28,0,0,1-.28.89,1,1,0,0,1-.52.46,2.38,2.38,0,0,1-1.61,0Zm13.19-8a3,3,0,0,0-1.23.94V7.14H88.61V18h3.83V10.85a1.17,1.17,0,0,1,.48-.64A1.8,1.8,0,0,1,94,10a3.8,3.8,0,0,1,.74.06,1.18,1.18,0,0,1,.49.23.93.93,0,0,1,.26.46,4.63,4.63,0,0,1,.06.83V18h3.83V10.67a4.11,4.11,0,0,0-.83-2.86,3.65,3.65,0,0,0-2.74-.87,5.12,5.12,0,0,0-2.13.37Z"/><path class="cls-10" d="M101.88,18.11a.42.42,0,0,0,.22-.11.38.38,0,0,0,.1-.23,2.18,2.18,0,0,0,0-.39,2.36,2.36,0,0,0,0-.4.34.34,0,0,0-.32-.33,2.15,2.15,0,0,0-.41,0,2.1,2.1,0,0,0-.4,0,.35.35,0,0,0-.22.1.41.41,0,0,0-.1.23c0,.11,0,.24,0,.4a3.84,3.84,0,0,0,0,.39.38.38,0,0,0,.1.23.35.35,0,0,0,.22.11,2.24,2.24,0,0,0,.4,0,2.31,2.31,0,0,0,.41,0Zm3.06,0a1.16,1.16,0,0,0,.51-.2,1,1,0,0,0,.32-.39,1.56,1.56,0,0,0,.11-.62,2.63,2.63,0,0,0,0-.43.79.79,0,0,0-.13-.31.85.85,0,0,0-.29-.23,2.49,2.49,0,0,0-.47-.17l-.36-.1-.21-.06a.29.29,0,0,1-.1-.07.09.09,0,0,1,0-.07.2.2,0,0,1,0-.09.13.13,0,0,1,.06-.07.35.35,0,0,1,.13,0H105l.28,0,.26,0,.19,0,0-1a2.51,2.51,0,0,0-.46-.1,6.4,6.4,0,0,0-.64,0,3.34,3.34,0,0,0-.78.08,1.33,1.33,0,0,0-.51.22.84.84,0,0,0-.26.38,1.67,1.67,0,0,0-.08.52,1.62,1.62,0,0,0,0,.41.63.63,0,0,0,.15.28.7.7,0,0,0,.29.21,3,3,0,0,0,.48.16l.33.09.18.07a.24.24,0,0,1,.1.1.22.22,0,0,1,0,.12c0,.11,0,.17-.09.19a.91.91,0,0,1-.34,0,2.68,2.68,0,0,1-.55-.05,6.24,6.24,0,0,1-.64-.14V18l.32.05.3,0,.32,0h.34a3.51,3.51,0,0,0,.68-.06Zm3.74-2.73v-1H108v-.9h-1.33v.9h-.44v1h.44v1.51a2.13,2.13,0,0,0,.07.61.81.81,0,0,0,.65.61,3,3,0,0,0,.64.06h.28l.26,0v-1h-.22a.38.38,0,0,1-.27-.08.46.46,0,0,1-.08-.32V15.34Zm3,2.73a1.27,1.27,0,0,0,.61-.31,1.38,1.38,0,0,0,.38-.6,2.87,2.87,0,0,0,.13-.95,3,3,0,0,0-.13-1,1.51,1.51,0,0,0-.38-.6,1.47,1.47,0,0,0-.61-.31,3.9,3.9,0,0,0-.81-.08,4,4,0,0,0-.81.08,1.49,1.49,0,0,0-.6.31,1.41,1.41,0,0,0-.38.6,3,3,0,0,0-.13,1,2.87,2.87,0,0,0,.13.95,1.3,1.3,0,0,0,.38.6,1.28,1.28,0,0,0,.6.31,3.35,3.35,0,0,0,.81.09,3.29,3.29,0,0,0,.81-.09Zm-1.09-.92a.39.39,0,0,1-.18-.16,1,1,0,0,1-.1-.31,3.25,3.25,0,0,1,0-.47,3.62,3.62,0,0,1,0-.49,1,1,0,0,1,.1-.31.39.39,0,0,1,.18-.16.61.61,0,0,1,.28-.05.56.56,0,0,1,.28.05.37.37,0,0,1,.19.16,1,1,0,0,1,.09.31,3.48,3.48,0,0,1,0,.49,3.09,3.09,0,0,1,0,.47,1,1,0,0,1-.09.31.37.37,0,0,1-.19.16.7.7,0,0,1-.28.05.78.78,0,0,1-.28-.05Z"/><path class="cls-10" d="M115.86,14.25a1.58,1.58,0,0,0-.32,0,.79.79,0,0,0-.27.1.87.87,0,0,0-.24.23,1.58,1.58,0,0,0-.19.37v-.66h-1.33v3.77h1.33v-2a.8.8,0,0,1,.11-.33.76.76,0,0,1,.23-.21,1,1,0,0,1,.29-.11,1.24,1.24,0,0,1,.33,0h.1l0-1.18Zm4.06,1a1.2,1.2,0,0,0-.27-.54,1.22,1.22,0,0,0-.53-.32,2.72,2.72,0,0,0-.83-.1,4.17,4.17,0,0,0-.83.08,1.58,1.58,0,0,0-.62.31,1.34,1.34,0,0,0-.39.6,3,3,0,0,0-.14,1,2.84,2.84,0,0,0,.14.95,1.3,1.3,0,0,0,.38.6,1.28,1.28,0,0,0,.6.31,3.2,3.2,0,0,0,.8.09,4.91,4.91,0,0,0,1-.09,1.86,1.86,0,0,0,.59-.21v-1a.9.9,0,0,1-.22.1,2.62,2.62,0,0,1-.33.09l-.37.06-.39,0a1.17,1.17,0,0,1-.58-.12.46.46,0,0,1-.28-.34l2.32-.14a1.8,1.8,0,0,0,0-.21,3.84,3.84,0,0,0,0-.39,3.25,3.25,0,0,0-.08-.75Zm-2.29.58a.6.6,0,0,1,.18-.46.91.91,0,0,1,.49-.11.51.51,0,0,1,.42.13.56.56,0,0,1,.1.35Z"/><path class="cls-10" d="M41.27,20.06l-1.09,0V21H37.54v6.27h1.08V25.06l.51.59a6.26,6.26,0,0,0,1.64-1.82q.88.93,1.5,1.71l.57-.71v.92a.43.43,0,0,1-.09.31.93.93,0,0,1-.36.12l-.62.06.35,1.06.69-.07a2.49,2.49,0,0,0,.7-.13.62.62,0,0,0,.33-.31,1.7,1.7,0,0,0,.09-.64V21H41.27Zm-2.65,2h1.54a2.85,2.85,0,0,1-.41,1.32,4.34,4.34,0,0,1-1.13,1.16ZM42,23.58c-.32-.33-.61-.61-.88-.84q.06-.36.09-.69h1.59v2.37l-.8-.84Zm14-1a6.94,6.94,0,0,0,.72.3l.5-1A9.33,9.33,0,0,1,55.45,21a6.66,6.66,0,0,1-1.39-1.14h-.94A6.44,6.44,0,0,1,51.75,21a11.79,11.79,0,0,1-1.88.92l.55,1,.73-.35v.89h3.44l-1,.55.4.26H50.81v2.92h5.54V24.27H54.74l1.31-.8Zm-1.58-.32c-.33-.34-.66-.65-1-.92l-.72.65c.15.14.33.31.54.53H51.24a12.22,12.22,0,0,0,1.36-.81,7.43,7.43,0,0,0,1-.82,6.69,6.69,0,0,0,1,.83,9.38,9.38,0,0,0,1.33.8H54.18Zm-2.55,3h3.32v1H51.92Z"/><path class="cls-10" d="M67.18,23.16V23l2.45-1.61V20.27H63.71v1.1H67.8L66,22.51v.65H63v1.1h3v1.4a.67.67,0,0,1,0,.27.18.18,0,0,1-.12.12,1.09,1.09,0,0,1-.28.06l-.78.05.35,1.12.82-.07a2.42,2.42,0,0,0,.74-.14.6.6,0,0,0,.36-.32,1.56,1.56,0,0,0,.1-.64V24.26h2.88v-1.1Zm9,4.11h1V25.93l.43.32a14.2,14.2,0,0,0,.84-1.41l.24.54.59-.37c-.17.29-.37.59-.59.9l.81.56a13.77,13.77,0,0,0,1-1.58l.48,1,.62-.4v.3a.46.46,0,0,1-.09.31.75.75,0,0,1-.38.11l-.56.06.32,1,.54-.06a2.72,2.72,0,0,0,.75-.15.6.6,0,0,0,.36-.32,1.63,1.63,0,0,0,.1-.66v-6H76.15Zm5.44-5.43-.73-.27c-.12.39-.26.77-.41,1.15l-.09-.15L80,22l-.46.28.18-.53-.87-.33c-.13.41-.28.81-.44,1.21-.2-.39-.38-.73-.55-1l-.71.41v-.8h4.4Zm-4.4.36c.23.43.49.94.76,1.53a14.69,14.69,0,0,1-.76,1.35ZM81,23.79a15.12,15.12,0,0,0,.58-1.56V25c-.14-.31-.33-.7-.58-1.16Zm-1.54.91-.16-.34c-.09-.17-.19-.38-.31-.62.14-.31.27-.64.41-1,.18.33.36.68.55,1-.17.32-.33.62-.49.89Zm14.88-1.48h1.16V22.09H94.35V20l-1.12,0V25.9h-.64V21.35l-1.11,0V25.9h-.25l-.08-.66-.05-.39-.54.15V23h.63V21.78h-.63V20.06l-1.08,0v1.76h-.66V23h.66V25.3a8.22,8.22,0,0,1-1,.23l.17,1.07.85-.22.88-.25.23-.06v1h5.19V25.9H94.35Zm13.07,1.29V24A2.06,2.06,0,0,0,108,24a.5.5,0,0,0,.28-.24,1.5,1.5,0,0,0,.17-.5,4.43,4.43,0,0,0,.08-.49l-.69-.25V20.16h-5.64v2.76a1.61,1.61,0,0,0,.11.66.69.69,0,0,0,.37.34,2.38,2.38,0,0,0,.7.11l1.91,0h1v.47h-4.73v1H103l-.29.39a7.24,7.24,0,0,1,.78.53c.29.22.52.41.69.56l.57-.84a6.63,6.63,0,0,0-.91-.64h2.47v.23a1,1,0,0,1,0,.34.24.24,0,0,1-.13.15,1,1,0,0,1-.33.06l-.51,0,.34,1,.62-.06a2.72,2.72,0,0,0,.75-.15.59.59,0,0,0,.33-.33,2,2,0,0,0,.09-.7v-.57h1.22v-1Zm-4.17-2.87v-.5h3.43v.5Zm.44,1.48a.52.52,0,0,1-.35-.1.48.48,0,0,1-.09-.34v-.15h4.13l0,.16a1.68,1.68,0,0,1-.07.27.31.31,0,0,1-.16.11,2.2,2.2,0,0,1-.37.05l-1.62,0-1.44,0Z"/><path class="cls-10" d="M121.15,25.17c0,.41,0,.68-.06.8s-.06.27-.12.27h-.11c-.06,0-.09-.11-.09-.32V22.56h-2.49V23.8c0,.57,0,1,0,1.28a3.32,3.32,0,0,1-.15.74,3.1,3.1,0,0,1-.39.65.67.67,0,0,0,0-.16V20.6h-1l.18-.55-1.08,0-.18.58H115v2.61h-.42v1H115a9.55,9.55,0,0,1-.09,1.11,4.29,4.29,0,0,1-.2.74c-.07.2-.19.47-.34.8l.9.49a6.12,6.12,0,0,0,.44-1.13,6.84,6.84,0,0,0,.21-1.47,5.37,5.37,0,0,1,.36.93l.54-.3V26a.3.3,0,0,1-.06.22.66.66,0,0,1-.3.09l-.39,0,.3,1,.37,0a2.7,2.7,0,0,0,.63-.13.5.5,0,0,0,.29-.3l.71.58a4.88,4.88,0,0,0,.53-.9,3.31,3.31,0,0,0,.24-.95,12.9,12.9,0,0,0,.07-1.41v-.51h.68v2.72a1,1,0,0,0,.18.68.74.74,0,0,0,.56.22H121a.81.81,0,0,0,.57-.2,1.1,1.1,0,0,0,.23-.64c0-.19,0-.45.06-.77v-.19ZM120.08,20l-1.1.06.16.83h-1.22V22h3.64V20.93h-1.33Zm-3.28,2.58c0-.14-.1-.29-.17-.48s-.15-.31-.2-.4l-.5.23v-.42h.87Zm-.87-.54a8,8,0,0,1,.34.91l.53-.28v.5h-.87Zm0,2.54,0-.41h.87v1a4.39,4.39,0,0,0-.2-.47c-.08-.17-.14-.28-.18-.35Z"/></g></g></svg>